<svg width="100" height="100" viewBox="0 0 100 100" fill="none" xmlns="http://www.w3.org/2000/svg">
  <style>
    path { fill: #3b003b; }
    @media (prefers-color-scheme: dark) {
      path { fill: #ffeeff; }
    }
  </style>
  <path d="M2.34315 44.7696C-0.781049 41.6454 -0.781048 36.58 2.34315 33.4558L33.4558 2.34315C36.58 -0.78105 41.6454 -0.781048 44.7696 2.34315C47.8937 5.46734 47.8937 10.5327 44.7696 13.6569L19.3137 39.1127L44.7696 64.5685C47.8937 67.6927 47.8937 72.7581 44.7696 75.8822C41.6454 79.0064 36.58 79.0064 33.4558 75.8822L2.34315 44.7696Z"/>
  <path d="M53.2548 13.6569C50.1306 10.5327 50.1306 5.46734 53.2548 2.34315C56.379 -0.78105 61.4443 -0.781048 64.5685 2.34315L95.6812 33.4558C98.8054 36.58 98.8054 41.6454 95.6812 44.7696L64.5685 75.8822C61.4443 79.0064 56.379 79.0064 53.2548 75.8822C50.1306 72.7581 50.1306 67.6927 53.2548 64.5685L78.7107 39.1127L53.2548 13.6569Z"/>
</svg>